<svg width="23" height="23" viewBox="0 0 23 23" fill="none" xmlns="http://www.w3.org/2000/svg">
<path d="M13.9336 22.3594C13.6211 22.3594 13.3594 22.2578 13.1484 22.0547C12.9375 21.8516 12.832 21.5938 12.832 21.2812C12.832 20.9688 12.9375 20.7109 13.1484 20.5078C13.3594 20.3125 13.6211 20.2148 13.9336 20.2148H14.918L19.0195 20.4492L15.7617 17.3672L12.1523 13.7578C12.043 13.6562 11.9609 13.5352 11.9062 13.3945C11.8516 13.2539 11.8242 13.1055 11.8242 12.9492C11.8242 12.6211 11.9336 12.3594 12.1523 12.1641C12.3789 11.9609 12.6562 11.8594 12.9844 11.8594C13.2891 11.8594 13.5391 11.9609 13.7344 12.1641L17.332 15.7969L20.4258 19.043L20.1797 14.9531V13.9688C20.1797 13.6562 20.2812 13.3984 20.4844 13.1953C20.6875 12.9844 20.9414 12.8789 21.2461 12.8789C21.5586 12.8789 21.8164 12.9844 22.0195 13.1953C22.2305 13.4062 22.3359 13.6641 22.3359 13.9688V20.4727C22.3359 21.0664 22.168 21.5273 21.832 21.8555C21.5039 22.1914 21.0391 22.3594 20.4375 22.3594H13.9336ZM1.07812 9.48047C0.765625 9.48047 0.507812 9.375 0.304688 9.16406C0.101562 8.95312 0 8.69531 0 8.39062V1.88672C0 1.29297 0.164062 0.832031 0.492188 0.503906C0.828125 0.167969 1.29297 0 1.88672 0H8.39062C8.71094 0 8.97266 0.101562 9.17578 0.304688C9.38672 0.507812 9.49219 0.765625 9.49219 1.07812C9.49219 1.39062 9.38672 1.64844 9.17578 1.85156C8.96484 2.04688 8.70312 2.14453 8.39062 2.14453H7.41797L3.31641 1.91016L6.5625 4.99219L10.1836 8.60156C10.2852 8.70312 10.3633 8.82422 10.418 8.96484C10.4727 9.10547 10.5 9.25391 10.5 9.41016C10.5 9.73828 10.3906 10.0039 10.1719 10.207C9.95312 10.4023 9.67578 10.5 9.33984 10.5C9.04297 10.5 8.79688 10.3984 8.60156 10.1953L4.99219 6.5625L1.91016 3.31641L2.14453 7.40625V8.39062C2.14453 8.70312 2.04297 8.96484 1.83984 9.17578C1.64453 9.37891 1.39062 9.48047 1.07812 9.48047Z" fill="black"/>
</svg>
