<svg width="27" height="27" viewBox="0 0 27 27" fill="none" xmlns="http://www.w3.org/2000/svg">
  <path
    d="M13.1953 22.6385C14.5391 22.6385 15.7852 22.3885 16.9336 21.8885C18.0898 21.3963 19.0977 20.7127 19.957 19.8377C20.8242 18.9549 21.5 17.9315 21.9844 16.7674C22.4688 15.5955 22.7109 14.3416 22.7109 13.0057C22.7109 11.6697 22.4688 10.4197 21.9844 9.25568C21.5 8.08381 20.8242 7.06037 19.957 6.18537C19.0977 5.30256 18.0898 4.61506 16.9336 4.12287C15.7852 3.62287 14.5391 3.37287 13.1953 3.37287C11.8516 3.37287 10.6016 3.62287 9.44531 4.12287C8.29688 4.61506 7.28906 5.30256 6.42188 6.18537C5.5625 7.06037 4.89062 8.08381 4.40625 9.25568C3.92188 10.4197 3.67969 11.6697 3.67969 13.0057C3.67969 14.3416 3.92188 15.5955 4.40625 16.7674C4.89062 17.9315 5.5625 18.9549 6.42188 19.8377C7.28906 20.7127 8.29688 21.3963 9.44531 21.8885C10.6016 22.3885 11.8516 22.6385 13.1953 22.6385ZM13.1719 16.1229C13.0625 16.1229 12.9414 16.1151 12.8086 16.0994C12.6836 16.0838 12.5312 16.0526 12.3516 16.0057L8.35547 22.5565L6.99609 21.7479L11.0273 15.1502C10.707 14.8065 10.4727 14.4627 10.3242 14.119C10.1758 13.7752 10.1016 13.4197 10.1016 13.0526C10.1016 12.6697 10.1758 12.3026 10.3242 11.951C10.4805 11.5916 10.7188 11.2479 11.0391 10.9197L7.125 4.25178L8.49609 3.47834L12.3516 10.076C12.5391 10.0369 12.6953 10.0096 12.8203 9.99396C12.9453 9.97834 13.0625 9.97053 13.1719 9.97053C13.8359 9.97053 14.4258 10.1658 14.9414 10.5565C15.4648 10.9471 15.8633 11.5135 16.1367 12.2557H23.8125L23.8242 13.7791H16.1367C15.8711 14.5369 15.4766 15.119 14.9531 15.5252C14.4375 15.9237 13.8438 16.1229 13.1719 16.1229ZM11.7656 13.0408C11.7656 13.4315 11.9062 13.7674 12.1875 14.0487C12.4766 14.3299 12.8125 14.4705 13.1953 14.4705C13.5859 14.4705 13.9219 14.3299 14.2031 14.0487C14.4922 13.7674 14.6367 13.4315 14.6367 13.0408C14.6367 12.6424 14.4922 12.3065 14.2031 12.033C13.9219 11.7596 13.5859 11.6229 13.1953 11.6229C12.8125 11.6229 12.4766 11.7596 12.1875 12.033C11.9062 12.3065 11.7656 12.6424 11.7656 13.0408ZM13.1953 24.4197C13.0391 24.4197 12.8867 24.4119 12.7383 24.3963C12.5898 24.3885 12.4375 24.3768 12.2812 24.3612L11.6016 25.6502C11.5391 25.783 11.4453 25.8807 11.3203 25.9432C11.1953 26.0057 11.0547 26.0252 10.8984 26.0018C10.75 25.9783 10.625 25.9119 10.5234 25.8026C10.4297 25.701 10.375 25.5721 10.3594 25.4158L10.1484 23.9979C9.85938 23.9197 9.57031 23.826 9.28125 23.7166C9 23.6151 8.71875 23.5018 8.4375 23.3768L7.38281 24.326C7.27344 24.4354 7.14844 24.4979 7.00781 24.5135C6.875 24.5291 6.73438 24.4979 6.58594 24.4197C6.45312 24.3494 6.35938 24.2479 6.30469 24.1151C6.25781 23.9901 6.25 23.8494 6.28125 23.6932L6.57422 22.2869C6.33203 22.1229 6.08984 21.9432 5.84766 21.7479C5.61328 21.5526 5.38672 21.3455 5.16797 21.1268L3.86719 21.6776C3.5625 21.8026 3.30078 21.7322 3.08203 21.4666C2.98047 21.3572 2.92188 21.2362 2.90625 21.1033C2.89844 20.9627 2.9375 20.826 3.02344 20.6932L3.78516 19.4744C3.61328 19.2322 3.45312 18.9783 3.30469 18.7127C3.15625 18.4471 3.01562 18.1737 2.88281 17.8924L1.45312 17.9627C1.29688 17.9705 1.16016 17.9354 1.04297 17.8572C0.925781 17.7791 0.839844 17.6658 0.785156 17.5174C0.746094 17.369 0.746094 17.2283 0.785156 17.0955C0.824219 16.9627 0.902344 16.8494 1.01953 16.7557L2.14453 15.8651C2.06641 15.5838 2 15.2947 1.94531 14.9979C1.89062 14.6932 1.85547 14.3846 1.83984 14.0721L0.46875 13.6385C0.320312 13.5838 0.203125 13.5057 0.117188 13.4041C0.0390625 13.2947 0 13.158 0 12.994C0 12.8377 0.0390625 12.7049 0.117188 12.5955C0.203125 12.4862 0.320312 12.408 0.46875 12.3612L1.83984 11.9276C1.85547 11.6151 1.89062 11.3104 1.94531 11.0135C2 10.7166 2.06641 10.4237 2.14453 10.1346L1.01953 9.23224C0.894531 9.14631 0.8125 9.04084 0.773438 8.91584C0.734375 8.78303 0.738281 8.6424 0.785156 8.49396C0.839844 8.34553 0.925781 8.23224 1.04297 8.15412C1.16016 8.07599 1.29688 8.04084 1.45312 8.04865L2.88281 8.10724C3.01562 7.82599 3.15625 7.55646 3.30469 7.29865C3.45312 7.03303 3.61328 6.77521 3.78516 6.52521L3.02344 5.29474C2.9375 5.17756 2.89844 5.05256 2.90625 4.91974C2.92188 4.77912 2.98047 4.65412 3.08203 4.54474C3.30078 4.27912 3.5625 4.20881 3.86719 4.33381L5.16797 4.86115C5.38672 4.65803 5.61328 4.45881 5.84766 4.26349C6.08984 4.06037 6.33203 3.87678 6.57422 3.71271L6.28125 2.31818C6.21875 1.97443 6.32031 1.72834 6.58594 1.5799C6.72656 1.50178 6.86719 1.47053 7.00781 1.48615C7.14844 1.50178 7.27344 1.56818 7.38281 1.68537L8.4375 2.61115C8.71875 2.48615 9 2.37287 9.28125 2.27131C9.57031 2.16974 9.85938 2.07599 10.1484 1.99006L10.3594 0.583807C10.375 0.435369 10.4297 0.310369 10.5234 0.208807C10.625 0.0994318 10.75 0.0330256 10.8984 0.00958807C11.0547 -0.0138494 11.1953 0.00568182 11.3203 0.0681818C11.4453 0.130682 11.5391 0.224432 11.6016 0.349432L12.2812 1.63849C12.4375 1.62287 12.5898 1.61115 12.7383 1.60334C12.8867 1.59553 13.0391 1.59162 13.1953 1.59162C13.3516 1.59162 13.5 1.59553 13.6406 1.60334C13.7891 1.61115 13.9453 1.62287 14.1094 1.63849L14.7773 0.349432C14.8398 0.224432 14.9336 0.130682 15.0586 0.0681818C15.1836 0.00568182 15.3242 -0.0138494 15.4805 0.00958807C15.6289 0.0330256 15.75 0.0994318 15.8438 0.208807C15.9453 0.310369 16.0078 0.435369 16.0312 0.583807L16.2305 2.00178C16.5195 2.08771 16.8086 2.18146 17.0977 2.28303C17.3867 2.37678 17.668 2.48615 17.9414 2.61115L18.9961 1.68537C19.1055 1.56818 19.2305 1.50178 19.3711 1.48615C19.5117 1.47053 19.6523 1.50178 19.793 1.5799C19.9258 1.65021 20.0156 1.75178 20.0625 1.88459C20.1172 2.00959 20.1289 2.15412 20.0977 2.31818L19.8047 3.71271C20.0469 3.87678 20.2852 4.06037 20.5195 4.26349C20.7617 4.45881 20.9922 4.65803 21.2109 4.86115L22.5117 4.33381C22.8164 4.20881 23.082 4.27912 23.3086 4.54474C23.4023 4.65412 23.4531 4.77912 23.4609 4.91974C23.4766 5.05256 23.4414 5.18146 23.3555 5.30646L22.5938 6.52521C22.7734 6.77521 22.9336 7.03303 23.0742 7.29865C23.2227 7.55646 23.3633 7.82599 23.4961 8.10724L24.9375 8.04865C25.0859 8.04084 25.2188 8.07599 25.3359 8.15412C25.4609 8.23224 25.5469 8.34553 25.5938 8.49396C25.6406 8.6424 25.6406 8.78303 25.5938 8.91584C25.5547 9.04084 25.4766 9.14631 25.3594 9.23224L24.2344 10.1346C24.3125 10.4237 24.3789 10.7166 24.4336 11.0135C24.4961 11.3104 24.5391 11.6151 24.5625 11.9276L25.9102 12.3612C26.0586 12.408 26.1758 12.4862 26.2617 12.5955C26.3477 12.7049 26.3906 12.8377 26.3906 12.994C26.3906 13.1502 26.3477 13.283 26.2617 13.3924C26.1758 13.5018 26.0586 13.5838 25.9102 13.6385L24.5625 14.0604C24.5391 14.3807 24.4961 14.6932 24.4336 14.9979C24.3789 15.2947 24.3125 15.5838 24.2344 15.8651L25.3594 16.7557C25.4766 16.8494 25.5547 16.9666 25.5938 17.1072C25.6406 17.2401 25.6406 17.3768 25.5938 17.5174C25.5469 17.6658 25.4609 17.7791 25.3359 17.8572C25.2188 17.9354 25.0859 17.9705 24.9375 17.9627L23.4961 17.8924C23.3633 18.1737 23.2227 18.4471 23.0742 18.7127C22.9336 18.9783 22.7734 19.2322 22.5938 19.4744L23.3555 20.6932C23.4414 20.826 23.4766 20.9627 23.4609 21.1033C23.4531 21.2362 23.4023 21.3572 23.3086 21.4666C23.082 21.7322 22.8164 21.8026 22.5117 21.6776L21.2109 21.1268C20.9922 21.3455 20.7617 21.5526 20.5195 21.7479C20.2852 21.9432 20.0469 22.1229 19.8047 22.2869L20.0977 23.6932C20.1289 23.8494 20.1172 23.9901 20.0625 24.1151C20.0156 24.2479 19.9258 24.3494 19.793 24.4197C19.6523 24.4979 19.5117 24.5291 19.3711 24.5135C19.2305 24.4979 19.1055 24.4354 18.9961 24.326L17.9414 23.3768C17.668 23.5018 17.3867 23.6151 17.0977 23.7166C16.8086 23.826 16.5195 23.9197 16.2305 23.9979L16.0312 25.4158C16.0078 25.5721 15.9453 25.701 15.8438 25.8026C15.75 25.9119 15.6328 25.9783 15.4922 26.0018C15.3281 26.0252 15.1836 26.0057 15.0586 25.9432C14.9336 25.8807 14.8398 25.783 14.7773 25.6502L14.1094 24.3612C13.9453 24.3768 13.7891 24.3885 13.6406 24.3963C13.5 24.4119 13.3516 24.4197 13.1953 24.4197Z"
    fill="currentColor" />
</svg>